<svg width="81" height="88" viewBox="0 0 81 88" fill="none" xmlns="http://www.w3.org/2000/svg">
<mask id="mask0_7_81" style="mask-type:luminance" maskUnits="userSpaceOnUse" x="0" y="0" width="81" height="88">
<path d="M0.86853 0H80.8048V88H0.86853V0Z" fill="#31CEE7"/>
</mask>
<g mask="url(#mask0_7_81)">
<path fill-rule="evenodd" clip-rule="evenodd" d="M6.19184 80.046C10.1949 85.217 15.4129 86.9174 22.688 87.2924C39.4822 88.1577 41.271 88.1812 57.4936 87.6253C63.7046 87.4058 69.5698 86.782 75.3025 81.2609C78.5488 78.136 80.2483 71.404 80.4371 63.7323C80.93 43.6023 80.9025 42.0437 80.5019 23.4053C80.4699 21.9372 80.2914 19.0689 79.7767 16.0534C79.2047 12.6913 78.2144 9.14347 76.5264 7.14342C70.6191 0.144489 65.2643 -0.00559954 61.6103 0.000130692C60.2119 0.00320046 53.7743 0.000130692 53.7743 0.000130692L46.2142 0.184089L19.2068 0.793245C19.2068 0.793245 7.59162 -0.0579109 3.30481 11.6251C2.41663 14.0426 1.83576 16.9848 1.74472 20.5952C1.63681 24.8837 0.868532 54.0939 0.868532 58.0294C0.867201 68.7263 1.83709 74.4214 6.19184 80.046Z" fill="#31CEE7"/>
</g>
<path fill-rule="evenodd" clip-rule="evenodd" d="M55.9454 75.1328L27.8238 74.2625C25.9564 74.2049 24.4607 72.5397 24.4292 70.4834L23.6769 21.5227C23.644 19.3735 25.2174 17.6121 27.1701 17.6121H57.537C59.5114 17.6121 61.0933 19.4117 61.0284 21.5843L59.535 71.4153C59.4715 73.5312 57.8674 75.1919 55.9454 75.1328Z" fill="#007D00"/>
<path fill-rule="evenodd" clip-rule="evenodd" d="M52.8267 35.7695C52.8267 41.9241 48.2943 46.9132 42.7041 46.9132C37.1135 46.9132 32.5815 41.9241 32.5815 35.7695C32.5815 29.6148 37.1135 24.6257 42.7041 24.6257C48.2943 24.6257 52.8267 29.6148 52.8267 35.7695Z" fill="#00CF00"/>
<path fill-rule="evenodd" clip-rule="evenodd" d="M33.6285 53.3226H47.4695H49.4204C50.3943 53.3226 50.3961 51.6565 49.4204 51.6565H35.579H33.6285C32.6547 51.6565 32.6529 53.3226 33.6285 53.3226ZM30.5917 58.5424H37.9813H49.7573H52.4574C53.4312 58.5424 53.4326 56.8763 52.4574 56.8763H45.0677H33.2918H30.5917C29.6178 56.8763 29.616 58.5424 30.5917 58.5424Z" fill="white"/>
<path fill-rule="evenodd" clip-rule="evenodd" d="M35.0203 68.4299L35.7461 68.4009L35.5717 63.0049L34.8441 63.0109L35.0203 68.4299Z" fill="black"/>
<path fill-rule="evenodd" clip-rule="evenodd" d="M36.2985 63L36.472 68.373L37.9244 68.315L37.7518 62.989L36.2985 63Z" fill="black"/>
<path fill-rule="evenodd" clip-rule="evenodd" d="M38.4785 62.9829L38.6511 68.2879L41.5552 68.1729L41.3862 62.9609L38.4785 62.9829Z" fill="black"/>
<path fill-rule="evenodd" clip-rule="evenodd" d="M42.1129 62.9551L42.281 68.1441L43.7325 68.0881L43.5663 62.9441L42.1129 62.9551Z" fill="black"/>
<path fill-rule="evenodd" clip-rule="evenodd" d="M45.7473 62.927L45.9108 68.002L47.3633 67.945L47.2007 62.916L45.7473 62.927Z" fill="black"/>
<path fill-rule="evenodd" clip-rule="evenodd" d="M47.9274 62.9099L48.09 67.9169L49.5415 67.8599L49.3808 62.8989L47.9274 62.9099Z" fill="black"/>
<path fill-rule="evenodd" clip-rule="evenodd" d="M33.9268 63.0259L34.0601 68.4669L34.4173 68.4539L34.2342 63.0349L33.9268 63.0259Z" fill="black"/>
<path fill-rule="evenodd" clip-rule="evenodd" d="M44.293 62.9379L44.4592 68.0589L45.185 68.0299L45.0206 62.9319L44.293 62.9379Z" fill="black"/>
<path fill-rule="evenodd" clip-rule="evenodd" d="M44.9277 38.6848C45.7879 37.8923 46.3466 36.7165 46.3466 35.3848C46.3466 32.998 44.5889 31.063 42.4213 31.063C40.2532 31.063 38.4955 32.998 38.4955 35.3848C38.4955 36.7165 39.0542 37.8923 39.9144 38.6848C38.4062 39.6415 37.3879 41.4304 37.3879 43.4847V45.2398C38.9343 46.2938 40.7515 46.9133 42.7041 46.9133C44.4214 46.9133 46.0375 46.4385 47.4541 45.6079V43.4847C47.4541 41.4304 46.4363 39.6415 44.9277 38.6848Z" fill="white"/>
<path fill-rule="evenodd" clip-rule="evenodd" d="M28.7019 19.4229H38.0558H52.955H56.3608C57.7521 19.4229 57.7543 17.0425 56.3608 17.0425H47.0069H32.1077H28.7019C27.3106 17.0425 27.3084 19.4229 28.7019 19.4229Z" fill="black"/>
<path fill-rule="evenodd" clip-rule="evenodd" d="M46.5378 21.2217H38.8697C38.76 21.2217 38.6711 21.124 38.6711 21.0032V12.1382C38.6711 11.3828 39.2276 10.7703 39.9137 10.7703H45.4946C46.1807 10.7703 46.7372 11.3828 46.7372 12.1382V21.0022C46.7372 21.1235 46.6479 21.2217 46.5378 21.2217Z" fill="#A3A3A3"/>
<path fill-rule="evenodd" clip-rule="evenodd" d="M44.2704 14.2021C44.2704 15.1544 43.5692 15.9264 42.7041 15.9264C41.839 15.9264 41.1378 15.1544 41.1378 14.2021C41.1378 13.2502 41.839 12.4783 42.7041 12.4783C43.5692 12.4783 44.2704 13.2502 44.2704 14.2021Z" fill="#31CEE7"/>
</svg>
